# Blender v2.83.2 OBJ File: ''
# www.blender.org
mtllib testScene.mtl
o Cube.001
v 7.999997 -9.133377 -8.000001
v -8.000002 -9.133375 -8.000000
v -8.000001 -9.133375 7.999999
v 7.999998 -9.133377 8.000000
v -7.999999 6.866624 -8.000000
v -7.999999 6.866624 8.000000
v 8.000002 6.866621 7.999999
v 8.000001 6.866621 -7.999999
v -1.000001 -6.433311 1.000000
v -1.000002 -8.433311 1.000000
v 0.999998 -8.433311 1.000000
v 0.999999 -6.433311 1.000000
v 0.999998 -8.433311 -1.000000
v 0.999999 -6.433311 -1.000000
v -1.000002 -8.433311 -1.000000
v -1.000001 -6.433311 -1.000000
v -1.999998 7.866621 2.000000
v -1.999998 5.866623 2.000000
v 2.000002 5.866622 2.000000
v 2.000003 7.866621 2.000000
v 2.000002 5.866622 -2.000000
v 2.000002 7.866622 -2.000001
v -1.999998 5.866623 -2.000000
v -1.999998 7.866622 -2.000000
vt 0.625000 0.500000
vt 0.625000 0.750000
vt 0.875000 0.750000
vt 0.875000 0.500000
vt 0.375000 0.750000
vt 0.375000 1.000000
vt 0.625000 1.000000
vt 0.125000 0.500000
vt 0.125000 0.750000
vt 0.375000 0.500000
vt 0.375000 0.250000
vt 0.625000 0.250000
vt 0.375000 0.000000
vt 0.625000 0.000000
vt 0.625000 0.250000
vt 0.375000 0.250000
vt 0.625000 0.500000
vt 0.375000 0.500000
vt 0.625000 0.750000
vt 0.375000 0.750000
vt 0.625000 1.000000
vt 0.375000 1.000000
vt 0.125000 0.500000
vt 0.125000 0.750000
vt 0.875000 0.500000
vt 0.875000 0.750000
vt 0.375000 0.000000
vt 0.625000 0.000000
vt 0.625000 0.250000
vt 0.375000 0.250000
vt 0.625000 0.500000
vt 0.375000 0.500000
vt 0.625000 0.750000
vt 0.375000 0.750000
vt 0.625000 1.000000
vt 0.375000 1.000000
vt 0.125000 0.500000
vt 0.125000 0.750000
vt 0.875000 0.500000
vt 0.875000 0.750000
vn 0.0000 1.0000 0.0000
vn 1.0000 -0.0000 -0.0000
vn -0.0000 -1.0000 -0.0000
vn -0.0000 -0.0000 1.0000
vn -1.0000 0.0000 0.0000
vn -0.0000 0.0000 -1.0000
usemtl wall
s 1
f 1/1/1 2/2/1 3/3/1 4/4/1
f 5/5/2 6/6/2 3/7/2 2/2/2
f 7/8/3 6/9/3 5/5/3 8/10/3
f 8/10/4 5/5/4 2/2/4 1/1/4
f 7/11/5 8/10/5 1/1/5 4/12/5
usemtl cube
f 9/13/4 10/14/4 11/15/4 12/16/4
f 12/16/2 11/15/2 13/17/2 14/18/2
f 14/18/6 13/17/6 15/19/6 16/20/6
f 16/20/5 15/19/5 10/21/5 9/22/5
f 12/23/1 14/18/1 16/20/1 9/24/1
f 13/17/3 11/25/3 10/26/3 15/19/3
usemtl light
f 17/27/4 18/28/4 19/29/4 20/30/4
f 20/30/2 19/29/2 21/31/2 22/32/2
f 22/32/6 21/31/6 23/33/6 24/34/6
f 24/34/5 23/33/5 18/35/5 17/36/5
f 20/37/1 22/32/1 24/34/1 17/38/1
f 21/31/3 19/39/3 18/40/3 23/33/3
